<svg width="48" height="48" viewBox="0 0 48 48" fill="none" xmlns="http://www.w3.org/2000/svg">
<path d="M36.5453 18.3008C36.1917 18.0805 35.7753 17.8654 35.3402 17.6631C34.5916 17.3151 33.7352 16.9786 32.931 16.6855C32.1255 16.392 31.3652 16.1397 30.807 15.9609C30.634 15.9055 30.4799 15.8578 30.35 15.8174L31.7123 10.6074L31.8881 9.93555L31.1947 9.98242C22.8635 10.5432 18.7651 12.849 16.7611 15.125C15.7606 16.2614 15.3006 17.3712 15.0931 18.208C14.9897 18.6254 14.949 18.9742 14.9349 19.2227C14.9279 19.3467 14.9276 19.4466 14.9291 19.5176C14.9298 19.5527 14.9308 19.5808 14.932 19.6016C14.9325 19.6107 14.9325 19.6188 14.933 19.625H14.934C15.1569 23.5472 17.9998 25.7863 20.6498 27.0225C21.9823 27.644 23.2967 28.0276 24.2748 28.2568C24.7648 28.3717 25.1734 28.4482 25.4603 28.4961C25.4646 28.4968 25.4688 28.4974 25.473 28.498C25.4264 29.0766 25.2151 29.7062 24.9691 30.252C24.8215 30.5795 24.6705 30.8607 24.556 31.0596C24.5481 31.0734 24.5392 31.0866 24.5316 31.0996C20.7796 30.5658 17.9633 29.7745 16.0785 29.1113C15.1093 28.7703 14.3855 28.464 13.9076 28.2441C13.6691 28.1344 13.4918 28.0462 13.3754 27.9863C13.3172 27.9564 13.2741 27.9329 13.2465 27.918C13.2327 27.9105 13.2223 27.9048 13.2162 27.9014C13.2132 27.8997 13.2105 27.8991 13.2094 27.8984L13.2084 27.8975H13.2094L13.1986 27.8916L12.5092 27.5059C9.1887 25.5583 7.71653 23.4035 7.06677 21.7393C6.71834 20.8467 6.60162 20.0818 6.57068 19.5469C6.55522 19.2793 6.56138 19.0691 6.57068 18.9297C6.57532 18.8601 6.58038 18.8081 6.58435 18.7754C6.58632 18.7592 6.58828 18.7477 6.58923 18.7412C6.58968 18.7381 6.59009 18.7361 6.59021 18.7354L6.58923 18.7363C7.30892 14.7966 9.77817 11.8676 13.1459 9.68066C16.5221 7.48816 20.7717 6.06282 24.9642 5.14258C29.1517 4.22346 33.2519 3.81416 36.308 3.63477C37.835 3.54513 39.0994 3.51355 39.9808 3.50391C40.2643 3.5008 40.5082 3.50159 40.7084 3.50195L36.5453 18.3008Z" fill="#007AEA" stroke="#3E4B57"/>
<path d="M6 44.7194C6 44.7194 38.2616 45.8136 41.3941 29.365C41.3941 29.365 42.3826 23.8851 34.6087 19.6317C34.6087 19.6317 30.6991 17.3727 22.8104 16.2255C22.8104 16.2255 21.4957 18.1757 21.5923 19.7906C21.5923 19.7906 31.705 21.0436 32.0668 28.3502C32.0668 28.3502 32.72 36.3539 16.192 37.3245L17.7273 31.6682C17.7273 31.6682 12.0626 29.9474 10.6678 28.6414L6 44.7194Z" fill="#3E4B57"/>
</svg>
